<svg xmlns="http://www.w3.org/2000/svg" width="180" height="180" viewBox="0 0 180 180">
<rect width="180" height="180" rx="36" fill="#FFD3A5"/>
<ellipse cx="88" cy="82" rx="54" ry="48" fill="#F3B185"/>
<path d="M38 57 Q50 22 88 26 Q126 24 133 57 Q112 42 86 45 Q61 42 38 57Z" fill="#2B2522"/>
<ellipse cx="64" cy="82" rx="7" ry="10" fill="#1E2430"/><ellipse cx="110" cy="82" rx="7" ry="10" fill="#1E2430"/>
<circle cx="62" cy="78" r="2.2" fill="white"/><circle cx="108" cy="78" r="2.2" fill="white"/>
<path d="M78 104 Q88 111 99 104" fill="none" stroke="#8A4D42" stroke-width="4" stroke-linecap="round"/>
<circle cx="49" cy="100" r="7" fill="#F29988" opacity=".72"/><circle cx="125" cy="100" r="7" fill="#F29988" opacity=".72"/>
<path d="M36 178 Q41 127 86 122 Q135 125 143 178Z" fill="#284A79"/>
<path d="M72 128 Q86 139 100 128" fill="#E0443A" opacity=".95"/>
<path d="M68 135 L86 151 L104 135" fill="none" stroke="#E0443A" stroke-width="8"/><path d="M86 151 L86 173" stroke="#E0443A" stroke-width="8"/>
</svg>